# xmcd
#
# Track frame offsets:
# 150
# 11406
# 23240
# 36513
# 49446
# 64790
# 76049
# 91184
# 106661
# 124739
# 139292
# 151748
# 170319
# 183754
# 218990
# 224851
#
# Disc length: 3203 seconds
#
#
# Revision: 1
# Processed by: cddbd v1.5.1PL0 Copyright (c) Steve Scherf et al.
# Submitted via: FreeRIP 2.942 
#
DISCID=d70c8110
DTITLE=Blues Brothers - Perform a Tribute to the Blues Brothers
DYEAR=2003
DGENRE=Blues
TTITLE0=Everybody needs somebody to love
TTITLE1=Raw hide
TTITLE2=Gimme some lovin'
TTITLE3=Shake yout tail feather
TTITLE4=Boom boom
TTITLE5=Think
TTITLE6=Minni the moocher
TTITLE7=Jailhouse Rock
TTITLE8=New Orleans
TTITLE9=Riot in cell block number nine
TTITLE10=Rubber biscuit
TTITLE11=She caught the Katy
TTITLE12=Soul Man
TTITLE13=Sweet home Chicago
TTITLE14=Can't turn you loose
TTITLE15=Going back to Miami
EXTD=YEAR: 2003
EXTT0=
EXTT1=
EXTT2=
EXTT3=
EXTT4=
EXTT5=
EXTT6=
EXTT7=
EXTT8=
EXTT9=
EXTT10=
EXTT11=
EXTT12=
EXTT13=
EXTT14=
EXTT15=
PLAYORDER=
